<?xml version="1.0" encoding="UTF-8"?>
<svg xmlns="http://www.w3.org/2000/svg" width="16px" height="16px" viewBox="0 0 16 16" version="1.1">
  <path d="M 6.292969 13.707031 L 1.292969 8.707031 C 0.902344 8.316406 0.902344 7.683594 1.292969 7.292969 L 6.292969 2.292969 C 6.683594 1.902344 7.316406 1.902344 7.707031 2.292969 C 8.097656 2.683594 8.097656 3.316406 7.707031 3.707031 L 4.414062 7 L 14 7 C 14.550781 7 15 7.449219 15 8 C 15 8.550781 14.550781 9 14 9 L 4.414062 9 L 7.707031 12.292969 C 7.902344 12.488281 8 12.742188 8 13 C 8 13.257812 7.902344 13.511719 7.707031 13.707031 C 7.316406 14.097656 6.683594 14.097656 6.292969 13.707031 Z"/>
</svg>
