<?xml version="1.0" encoding="UTF-8" standalone="no"?>
<svg
   xmlns:dc="http://purl.org/dc/elements/1.1/"
   xmlns:cc="http://creativecommons.org/ns#"
   xmlns:rdf="http://www.w3.org/1999/02/22-rdf-syntax-ns#"
   xmlns:svg="http://www.w3.org/2000/svg"
   xmlns="http://www.w3.org/2000/svg"
   xmlns:sodipodi="http://sodipodi.sourceforge.net/DTD/sodipodi-0.dtd"
   xmlns:inkscape="http://www.inkscape.org/namespaces/inkscape"
   version="1.1"
   id="svg847"
   width="920"
   height="483"
   viewBox="0 0 920 483"
   sodipodi:docname="Black Sabbath logo.svg"
   inkscape:version="1.0.1 (3bc2e813f5, 2020-09-07)">
  <title
     id="title2042">Black Sabbath logo</title>
  <metadata
     id="metadata853">
    <rdf:RDF>
      <cc:Work
         rdf:about="">
        <dc:format>image/svg+xml</dc:format>
        <dc:type
           rdf:resource="http://purl.org/dc/dcmitype/StillImage" />
        <dc:title>Black Sabbath logo</dc:title>
        <dc:date>2020-11-25</dc:date>
        <dc:creator>
          <cc:Agent>
            <dc:title>Andreas Franzkowiak</dc:title>
          </cc:Agent>
        </dc:creator>
        <dc:rights>
          <cc:Agent>
            <dc:title>Trademark, Pulbic-Domain textlogo</dc:title>
          </cc:Agent>
        </dc:rights>
        <dc:publisher>
          <cc:Agent>
            <dc:title>Black Sabbath</dc:title>
          </cc:Agent>
        </dc:publisher>
      </cc:Work>
    </rdf:RDF>
  </metadata>
  <defs
     id="defs851" />
  <sodipodi:namedview
     pagecolor="#000000"
     bordercolor="#666666"
     borderopacity="1"
     objecttolerance="10"
     gridtolerance="10"
     guidetolerance="10"
     inkscape:pageopacity="0"
     inkscape:pageshadow="2"
     inkscape:window-width="1920"
     inkscape:window-height="1027"
     id="namedview849"
     showgrid="false"
     inkscape:zoom="1.101087"
     inkscape:cx="460"
     inkscape:cy="241.5"
     inkscape:window-x="1912"
     inkscape:window-y="-8"
     inkscape:window-maximized="1"
     inkscape:current-layer="g855" />
  <g
     inkscape:groupmode="layer"
     inkscape:label="Image"
     id="g855">
    <path
       id="path1997"
       style="fill:#662d91;fill-opacity:1;stroke-width:1.57637"
       d="m 109.95266,430.9777 c 3.9033,-11.47482 6.47878,-22.70011 7.59918,-33.12121 3.29235,-30.62282 15.92766,-67.90654 34.99169,-103.25195 8.8173,-16.3476 12.51314,-18.78102 38.48738,-25.34091 10.12259,-2.55647 18.56254,-4.46225 18.75545,-4.235 2.12179,2.49924 7.6423,16.06076 11.66544,28.65673 4.42646,13.85888 6.95683,26.7094 12.61645,64.07304 1.24476,8.21757 11.35276,41.83226 16.60699,55.22737 0.86866,2.21456 -1.92168,2.64242 -23.1282,3.54648 -13.2638,0.56544 -27.48551,1.47519 -31.60376,2.02164 l -7.48774,0.99354 v -7.51821 -7.51825 l -8.09443,0.95867 c -4.45194,0.52726 -12.48909,3.01517 -17.86031,5.52866 -9.12821,4.2716 -9.86058,5.01185 -11.21605,11.33678 -1.42847,6.6656 -1.61516,6.82227 -12.48471,10.47783 -6.06901,2.0411 -16.37094,6.36861 -22.89316,9.61672 l -11.85861,5.90563 z m 75.05331,-61.38605 c 0.27025,-3.13353 0.27025,-7.98696 0,-10.78536 l -0.49133,-5.08805 -4.40696,7.35491 c -4.58144,7.6461 -7.69312,16.27597 -6.35216,17.61695 0.42654,0.42652 3.02182,-0.16425 5.76732,-1.3128 4.11661,-1.72216 5.07794,-3.08717 5.48313,-7.78565 z m 70.69291,38.23975 c -3.07171,-25.57845 -0.59068,-52.36627 9.20675,-99.40511 3.02147,-14.50655 5.95629,-31.35396 6.52179,-37.43868 l 1.02823,-11.06311 7.26137,-0.0234 c 9.25552,-0.0295 22.80539,-3.21884 46.89322,-11.03698 25.91413,-8.41088 34.3358,-9.30136 41.55096,-4.39343 3.03451,2.06414 7.29069,6.91767 9.45819,10.78562 3.40041,6.06808 3.93663,8.97844 3.9096,21.21991 -0.036,16.26212 -3.35769,25.13565 -13.33643,35.62548 l -5.71111,6.00361 6.80369,5.6872 c 30.77314,25.72315 14.14458,79.47659 -27.00466,87.29518 -4.40613,0.83719 -23.97184,1.89741 -43.47935,2.35601 -19.50752,0.45863 -36.95895,1.27313 -38.78096,1.81 -2.9977,0.88332 -3.40862,0.17747 -4.32129,-7.42241 z m 67.28791,-40.88788 c 3.84848,-1.75348 7.34165,-7.36541 7.34165,-11.79474 0,-3.76842 -7.36687,-10.10054 -11.7511,-10.10054 -3.9425,0 -4.01257,0.20641 -4.01257,11.82274 0,12.74425 0.70576,13.58831 8.42202,10.07254 z m 4.6615,-71.17116 c 4.05043,-4.69315 2.869,-10.92471 -2.56251,-13.51626 -2.44995,-1.16897 -4.81757,-1.76228 -5.26136,-1.31847 -0.44382,0.44382 -1.20533,5.20055 -1.69226,10.57058 -0.88141,9.72024 -0.86853,9.75874 2.89682,8.65756 2.0802,-0.60836 5.05889,-2.58539 6.61931,-4.39341 z m 60.07187,105.69633 c 2.4033,-15.39528 5.6019,-90.98782 5.63458,-133.16204 0.0259,-33.42803 0.26354,-36.61384 2.78696,-37.36019 5.9665,-1.76469 47.87742,-5.67441 65.02506,-6.06594 21.07217,-0.48113 26.34326,1.29614 37.34253,12.59099 17.30841,17.77345 17.53084,49.22249 0.48512,68.58744 l -6.20542,7.04972 7.91689,4.92142 c 19.16285,11.91228 18.34879,39.53647 -1.69148,57.39951 -16.68085,14.86862 -45.46625,23.25568 -103.7446,30.22763 l -8.35961,1.00005 z m 69.57733,-46.10244 c 2.12809,-2.12809 3.86927,-4.99777 3.86927,-6.3771 0,-3.51075 -7.11459,-10.24637 -10.82288,-10.24637 -2.66526,0 -3.15695,1.30378 -3.6185,9.59462 -0.29375,5.27704 -0.23852,9.8879 0.12281,10.24638 1.82998,1.81585 7.01146,0.2204 10.44938,-3.21753 z m -0.73859,-68.52228 c 2.53433,-2.53431 4.60786,-5.75868 4.60786,-7.16529 0,-3.61223 -7.11669,-10.29598 -10.96291,-10.29598 -2.58329,0 -3.22784,1.01862 -3.24174,5.12318 -0.009,2.81776 -0.45704,7.78332 -0.99444,11.03456 -0.88279,5.34095 -0.64124,5.91137 2.50316,5.91137 1.91414,0 5.55378,-2.07351 8.08807,-4.60784 z m 396.81536,97.70306 c -10.13961,-0.53202 -18.78699,-1.31865 -19.21642,-1.74807 -0.42943,-0.42943 0.53672,-4.77429 2.14696,-9.65525 3.40397,-10.31811 6.05327,-27.38559 6.68567,-43.07095 l 0.44489,-11.03455 -7.88182,-0.0911 c -11.71401,-0.13541 -11.82275,-0.0305 -11.82275,11.38643 0,13.43128 -2.60821,30.5619 -6.47542,42.53048 l -3.13021,9.6876 -26.3304,-0.83143 c -14.4817,-0.45728 -26.56145,-1.02802 -26.84386,-1.26833 -0.28242,-0.24029 1.28827,-7.77241 3.49039,-16.738 5.51979,-22.47305 7.0082,-39.19873 8.04375,-90.39027 1.23434,-61.0169 1.96816,-70.64341 5.2878,-69.36767 5.69536,2.18876 25.32857,5.71691 36.77102,6.60788 l 12.09399,0.94171 0.95132,12.78084 c 0.52324,7.02945 0.75586,19.51979 0.51693,27.75631 l -0.43439,14.97548 h 9.4582 9.45819 l -0.10074,-26.79822 -0.10073,-26.79823 h 27.88452 27.88454 l 0.21635,25.22187 c 0.11901,13.87201 -0.55371,30.89675 -1.49488,37.83275 -0.94114,6.93602 -2.29808,30.34505 -3.0154,52.02007 -0.99072,29.93667 -1.96307,41.5878 -4.04536,48.47324 l -2.74113,9.06409 -9.63264,-0.25968 c -5.29794,-0.14282 -17.92866,-0.695 -28.06829,-1.22703 z m -340.2994,-21.61634 c 20.37883,-41.39825 33.86184,-74.57996 48.42092,-119.16393 l 7.59284,-23.25139 14.21687,-0.15885 c 7.81927,-0.0873 20.74842,-0.45218 28.73143,-0.81069 l 14.51456,-0.65183 1.73014,6.72207 c 3.29933,12.81876 6.75415,22.64321 19.02741,54.10831 15.8276,40.57724 20.39691,57.75891 21.52457,80.93709 l 0.87464,17.97781 -6.14201,-1.01453 c -3.37807,-0.55798 -15.89575,-1.02232 -27.81701,-1.03185 l -21.67502,-0.0173 v -4.77972 c 0,-2.62886 -1.07207,-7.34557 -2.38239,-10.48158 l -2.3824,-5.70188 -16.92807,0.90637 c -9.31045,0.49851 -18.07341,1.35275 -19.47321,1.89831 -3.09812,1.20745 -6.12488,7.47623 -6.12488,12.68537 0,4.39674 -1.20634,4.79795 -18.9164,6.29165 -10.95855,0.92427 -34.03444,4.48692 -42.07788,6.49636 -3.05836,0.76403 -2.21831,-1.65263 7.28589,-20.95973 z m 87.61304,-46.27774 c 1.19475,-1.93317 -3.38826,-18.36014 -5.48366,-19.65517 -1.62006,-1.00126 -5.36758,5.45513 -8.77967,15.126 l -2.16146,6.12624 h 7.71887 c 4.24538,0 8.16304,-0.71867 8.70592,-1.59707 z m 79.80221,60.23427 -6.88509,-0.51108 1.09515,-6.59985 c 4.06001,-24.46769 7.28459,-56.41575 8.18382,-81.08312 l 1.04876,-28.76867 -6.94879,0.0377 c -3.82182,0.0206 -9.76635,0.69083 -13.21,1.48924 -3.44366,0.7984 -6.37583,1.3135 -6.51593,1.14467 -0.14013,-0.16886 1.39128,-6.69127 3.4031,-14.49427 2.01178,-7.80301 4.12988,-18.08879 4.70687,-22.85731 l 1.04909,-8.67 22.30178,-5.94923 c 30.52326,-8.14241 37.52173,-9.20504 57.21163,-8.68687 l 17.05404,0.44881 -0.47401,6.52597 c -0.26072,3.58931 0.68638,16.6057 2.10463,28.92535 1.41824,12.31962 2.35354,22.62197 2.07845,22.89407 -0.27508,0.27211 -3.69229,-0.12218 -7.5938,-0.87619 -3.90149,-0.75402 -9.68108,-1.40181 -12.84352,-1.43958 l -5.74988,-0.0688 -0.9593,21.67501 c -1.60068,36.16592 -4.08797,61.94956 -7.7258,80.08689 l -3.46061,17.25368 -20.49276,0.0173 c -11.27101,0.01 -23.59104,-0.2127 -27.37783,-0.49378 z M 166.86631,266.88994 c 10.39207,-31.85648 12.19051,-47.4888 12.58934,-109.42919 l 0.32988,-51.23187 47.29096,-1.25535 c 52.21174,-1.38599 57.30381,-0.83334 66.46939,7.21416 4.28173,3.75939 5.25525,5.76169 5.25525,10.80874 0,8.5599 -5.78192,19.13534 -17.36313,31.75817 l -9.81061,10.69298 5.65043,5.48763 c 7.09509,6.89066 9.58814,15.59161 8.24432,28.77347 -1.98132,19.43556 -12.22109,37.28432 -25.26021,44.03057 -6.78619,3.51109 -19.45529,6.68264 -26.87997,6.72906 -14.71071,0.0919 -39.90354,7.2165 -65.27845,18.46072 -1.63438,0.72423 -1.96232,0.18374 -1.2372,-2.03909 z m 62.23298,-53.5639 c 3.06352,-2.14578 8.22359,-9.9496 8.22359,-12.43695 0,-0.47656 -1.98675,-0.86647 -4.41498,-0.86647 -3.67497,0 -4.99609,1.19609 -7.88183,7.13581 -1.90678,3.92469 -3.46685,7.47152 -3.46685,7.88183 0,1.58562 4.18834,0.63344 7.54007,-1.71422 z m 22.41087,-52.71256 c 6.54854,-6.54852 2.04892,-17.34001 -7.23012,-17.34001 -2.82116,0 -3.54063,1.2018 -4.37836,7.31365 -1.71034,12.4783 -1.51218,13.17909 3.72666,13.17909 2.62727,0 6.13031,-1.4012 7.88182,-3.15273 z m 40.0283,51.38749 c 1.34163,-44.82178 2.74907,-54.62626 10.45324,-72.81872 3.33945,-7.88569 8.01567,-20.8316 10.39159,-28.76867 2.37591,-7.9371 5.08011,-14.434562 6.00931,-14.438808 0.9292,-0.0052 11.14228,-3.848076 22.69575,-8.541809 15.66714,-6.364973 20.73802,-7.865511 19.95073,-5.903648 -3.70398,9.230217 -8.74768,34.523695 -10.32259,51.766515 -1.62823,17.82679 -1.05953,50.9568 0.92999,54.17591 0.84,1.35918 24.58738,-3.41442 38.18974,-7.67675 5.41876,-1.69798 9.85229,-2.79539 9.85229,-2.43866 0,0.35671 -3.43238,8.97205 -7.6275,19.14519 -4.19513,10.1731 -8.50917,20.73391 -9.58676,23.46844 -1.54416,3.9185 -3.18191,5.20126 -7.73003,6.05447 -3.17395,0.59545 -15.05427,4.5195 -26.40075,8.72011 -18.14881,6.71897 -34.71421,10.82127 -52.53634,13.0103 l -5.35853,0.65817 z m 104.36774,-9.84052 c 23.14015,-48.70818 40.39985,-89.05021 55.88015,-130.611609 4.52101,-12.138017 8.32629,-22.209874 8.45619,-22.381907 0.12991,-0.172046 9.79007,-1.060695 21.46704,-1.974763 11.67697,-0.914091 23.77508,-2.004575 26.88468,-2.423291 l 5.65382,-0.761312 1.94225,20.076096 c 3.64192,37.645016 12.81086,83.608356 23.97296,120.175306 3.57284,11.70451 6.85049,22.52232 7.28366,24.03957 0.72115,2.52585 -0.99045,2.76631 -20.28309,2.84969 -11.58888,0.0501 -25.15278,0.4543 -30.14202,0.89826 -9.81895,0.87374 -9.64925,1.0067 -11.32179,-8.87114 -0.51381,-3.0345 -1.45579,-6.26412 -2.09326,-7.17696 -1.55401,-2.22511 -31.4471,-0.20642 -33.9618,2.29346 -1.03254,1.02644 -2.982,5.14357 -4.33212,9.14921 -1.35013,4.00564 -3.47822,7.42053 -4.72909,7.58867 -1.25088,0.16816 -7.59455,0.78107 -14.09706,1.36208 -10.61242,0.94821 -24.54814,3.42388 -36.63641,6.50845 -4.29415,1.09573 -4.25663,0.96724 6.05589,-20.73981 z M 477.753,146.0321 c -0.56698,-3.68475 -1.44796,-9.1665 -1.95768,-12.18164 l -0.9268,-5.4821 -5.27451,11.59858 c -2.90099,6.37919 -5.27452,11.86093 -5.27452,12.18163 0,0.3207 3.25448,0.58309 7.2322,0.58309 h 7.23221 z m 126.07481,67.18187 c -18.99377,-2.93554 -37.30583,-11.89843 -47.63655,-23.31585 -14.14523,-15.63317 -20.37148,-36.03999 -18.92186,-62.01735 1.09661,-19.65195 4.07172,-30.664892 13.30147,-49.238282 6.01487,-12.103951 9.8696,-17.399943 20.10301,-27.619471 14.49852,-14.478831 27.16355,-21.580475 45.18952,-25.338985 11.29213,-2.354474 26.15419,-2.497146 25.4031,-0.243881 -0.21675,0.650258 -0.39409,15.80013 -0.39409,33.66642 0,30.329272 -0.18301,32.407016 -2.75864,31.321527 -4.15565,-1.751384 -18.64011,-2.837461 -23.05708,-1.728861 -10.99539,2.759664 -19.80666,16.489763 -19.86425,30.953333 -0.0659,16.54561 9.3634,26.77362 24.68279,26.77362 4.66813,0 11.03414,-1.06403 14.14667,-2.36454 3.11255,-1.30051 6.10456,-2.36488 6.64892,-2.36529 1.17736,-8.7e-4 -2.09659,69.03171 -3.33252,70.26766 -1.16597,1.16596 -27.65982,2.15419 -33.51049,1.24995 z m 45.97152,-30.01924 c -1.54338,-37.21361 -1.27211,-83.913312 0.7035,-121.104084 0.96715,-18.207019 1.91505,-33.280841 2.1064,-33.497378 0.19134,-0.216551 13.05752,-0.855228 28.59148,-1.419289 l 28.24359,-1.025561 -0.47717,22.306116 c -0.26246,12.268372 0.0921,22.28431 0.78818,22.257668 0.69595,-0.02661 5.48225,-9.071047 10.63622,-20.098662 5.15397,-11.027614 9.81642,-20.598336 10.36102,-21.268285 0.54457,-0.669938 14.18763,-1.024624 30.31788,-0.78819 l 29.32779,0.429916 -19.58957,37.832768 c -10.77426,20.80802 -19.58982,38.472981 -19.5901,39.255461 -3.1e-4,0.78248 3.51457,10.06362 7.81085,20.62476 8.13156,19.989 23.7159,64.48936 23.7159,67.71957 0,1.40869 -2.76222,1.36324 -11.42864,-0.18812 -6.28576,-1.12518 -19.23167,-1.96282 -28.76868,-1.86144 l -17.34002,0.18437 -7.88182,-18.45294 -7.88184,-18.45291 -0.43971,20.59212 c -0.42395,19.85453 -0.56511,20.6167 -3.94091,21.27849 -1.92565,0.37748 -13.4323,2.53389 -25.57031,4.79198 -12.13802,2.2581 -23.55195,4.49348 -25.36428,4.96754 -3.20939,0.83947 -3.32208,0.21257 -4.32976,-24.0839 z m -618.692577,282.16441 -8.382273,-0.67927 0.999811,-5.03713 c 2.267316,-11.42308 7.272251,-29.827 10.344445,-38.03819 2.876668,-7.68862 3.639487,-8.57111 6.216485,-7.19195 7.283665,3.89809 15.755637,-0.22535 15.755637,-7.66854 0,-1.91132 -1.779331,-6.98643 -3.954051,-11.27805 -14.399204,-28.41545 -10.228627,-62.86048 9.733243,-80.3872 10.1371,-8.90051 20.488706,-12.60446 39.47294,-14.12394 9.35619,-0.74885 17.28193,-1.09087 17.61276,-0.76003 1.06463,1.06463 -4.57143,21.39273 -9.40958,33.93846 l -4.69588,12.17684 -6.086437,-0.81638 c -9.592386,-1.28662 -9.80567,2.96162 -1.03093,20.53503 12.469757,24.97353 15.256577,45.7407 8.545257,63.67832 -4.08818,10.92664 -16.6884,24.16738 -29.547,31.04901 -7.370215,3.94435 -10.460487,4.60975 -22.857302,4.92163 -7.884167,0.19837 -18.10688,0.055 -22.717125,-0.31861 z" />
  </g>
</svg>
